{"title":"Starship Troopers 3 Marauder 2008 1080p BluRay","uid":12519014,"size":8532509711,"categoryP":"video","categoryS":"hd___movies","magnet":"?xt=urn:btih:aa8ee9f1578707aab4cb4085e6afc1f6d69213c4&amp;dn=Starship+Troopers+3+Marauder+2008+1080p+BluRay&amp;tr=udp%3A%2F%2Ftracker.leechers-paradise.org%3A6969&amp;tr=udp%3A%2F%2Fzer0day.ch%3A1337&amp;tr=udp%3A%2F%2Fopen.demonii.com%3A1337&amp;tr=udp%3A%2F%2Ftracker.coppersurfer.tk%3A6969&amp;tr=udp%3A%2F%2Fexodus.desync.com%3A6969","seeders":0,"leechers":1,"uploader":"Joker__TPB","files":3,"time":1443822965,"description":"===================================================================================\r\nThe war against the Bugs continues! A Federation Starship crash-lands on the distant Alien planet OM-1| stranding beloved leader Sky Marshal Anoke and several\r\nothers| including comely but tough pilot Lola Beck. It's up to Colonel/General Johnny Rico| reluctant hero of the original Bug Invasion on Planet P| to lead a team\r\nof Troopers on a daring rescue mission.\r\n===================================================================================\r\nVideo\r\nID                                       : 1\r\nFormat                                   : AVC\r\nFormat/Info                              : Advanced Video Codec\r\nFormat profile                           :   \r\nFormat settings, CABAC                   : Yes\r\nFormat settings, ReFrames                : 5 frames\r\nCodec ID                                 : V_MPEG4/ISO/AVC\r\nDuration                                 : 1h 44mn\r\nBit rate                                 : 9 330 Kbps\r\nWidth                                    : 1 920 pixels\r\nHeight                                   : 1 040 pixels\r\nDisplay aspect ratio                     : 1.85:1\r\nFrame rate mode                          : Constant\r\nFrame rate                               : 23.976 fps\r\nColor space                              : YUV\r\nChroma subsampling                       : 4:2:0\r\nBit depth                                : 8 bits\r\nScan type                                : Progressive\r\nBits/(Pixel*Frame)                       : 0.195\r\nStream size                              : 6.68 GiB (84%)\r\nWriting library                          : x264 core 60 r901M 58d7d06\r\nEncoding settings                        : cabac=1 / ref=5 / deblock=0:0:0 / analyse=0x3:0x2 / me=hex / subme=6 / rdcmp=psy / brdo=0 / mixed_ref=1 / me_range=16 / chroma_me=1 / trellis=1 / 8x8dct=1 / cqm=0 / deadzone=21,11 / chroma_qp_offset=0 / threads=6 / nr=0 / decimate=1 / mbaff=0 / bframes=3 / b_pyramid=1 / b_adapt=1 / b_bias=0 / direct=3 / wpredb=1 / bime=1 / keyint=150 / keyint_min=25 / scenecut=40(pre) / rc=2pass / bitrate=9330 / ratetol=1.0 / rceq='blurCplx^(1-qComp)' / qcomp=1.00 / qpmin=10 / qpmax=51 / qpstep=4 / cplxblur=20.0 / qblur=0.5 / ip_ratio=1.40 / pb_ratio=1.30 / aq=2:1.00\r\nLanguage                                 : English\r\nDefault                                  : Yes\r\nForced                                   : No\r\n\r\nAudio\r\nID                                       : 2\r\nFormat                                   : DTS\r\nFormat/Info                              : Digital Theater Systems\r\nMode                                     : 16\r\nFormat settings, Endianness              : Big\r\nCodec ID                                 : A_DTS\r\nDuration                                 : 1h 44mn\r\nBit rate mode                            : Constant\r\nBit rate                                 : 1 510 Kbps\r\nChannel(s)                               : 6 channels\r\nChannel positions                        : Front: L C R, Side: L R, LFE\r\nSampling rate                            : 48.0 KHz\r\nBit depth                                : 24 bits\r\nCompression mode                         : Lossy\r\nStream size                              : 1.11 GiB (14%)\r\nLanguage                                 : English\r\nDefault                                  : Yes\r\nForced                                   : No\r\n===================================================================================","torrent":{"xt":"urn:btih:aa8ee9f1578707aab4cb4085e6afc1f6d69213c4","amp;dn":"Starship+Troopers+3+Marauder+2008+1080p+BluRay","amp;tr":["udp%3A%2F%2Ftracker.leechers-paradise.org%3A6969","udp%3A%2F%2Fzer0day.ch%3A1337","udp%3A%2F%2Fopen.demonii.com%3A1337","udp%3A%2F%2Ftracker.coppersurfer.tk%3A6969","udp%3A%2F%2Fexodus.desync.com%3A6969"],"infoHash":"aa8ee9f1578707aab4cb4085e6afc1f6d69213c4","infoHashBuffer":{"type":"Buffer","data":[170,142,233,241,87,135,7,170,180,203,64,133,230,175,193,246,214,146,19,196]},"announce":[],"urlList":[]}}